<svg width="28" height="28" viewBox="0 0 28 28" fill="none" xmlns="http://www.w3.org/2000/svg">
<path fill-rule="evenodd" clip-rule="evenodd" d="M8.08125 0.0825C9.5475 0.015 10.015 0 13.75 0C17.485 0 17.9525 0.01625 19.4175 0.0825C20.8825 0.14875 21.8825 0.3825 22.7575 0.72125C23.6737 1.0675 24.505 1.60875 25.1925 2.30875C25.8925 2.995 26.4325 3.825 26.7775 4.7425C27.1175 5.6175 27.35 6.6175 27.4175 8.08C27.485 9.54875 27.5 10.0163 27.5 13.75C27.5 17.4837 27.4838 17.9525 27.4175 19.4187C27.3513 20.8812 27.1175 21.8812 26.7775 22.7562C26.4323 23.6738 25.8915 24.5051 25.1925 25.1925C24.505 25.8925 23.6737 26.4325 22.7575 26.7775C21.8825 27.1175 20.8825 27.35 19.42 27.4175C17.9525 27.485 17.485 27.5 13.75 27.5C10.015 27.5 9.5475 27.4838 8.08125 27.4175C6.61875 27.3513 5.61875 27.1175 4.74375 26.7775C3.82621 26.4323 2.99485 25.8915 2.3075 25.1925C1.60822 24.5056 1.06693 23.6747 0.72125 22.7575C0.3825 21.8825 0.15 20.8825 0.0825 19.42C0.015 17.9512 0 17.4837 0 13.75C0 10.0163 0.01625 9.5475 0.0825 8.0825C0.14875 6.6175 0.3825 5.6175 0.72125 4.7425C1.0673 3.82517 1.60902 2.99424 2.30875 2.3075C2.99525 1.60838 3.82574 1.06709 4.7425 0.72125C5.6175 0.3825 6.61875 0.15 8.08125 0.0825ZM19.305 2.5575C17.855 2.49125 17.42 2.4775 13.7487 2.4775C10.0775 2.4775 9.6425 2.49125 8.1925 2.5575C6.85125 2.61875 6.12375 2.8425 5.63875 3.03125C4.9975 3.28125 4.53875 3.5775 4.0575 4.05875C3.60091 4.50224 3.24977 5.04262 3.03 5.64C2.84125 6.125 2.6175 6.8525 2.55625 8.19375C2.49 9.64375 2.47625 10.0787 2.47625 13.75C2.47625 17.4213 2.49 17.8562 2.55625 19.3062C2.6175 20.6475 2.84125 21.375 3.03 21.86C3.25 22.4563 3.60125 22.9975 4.0575 23.4413C4.50125 23.8975 5.0425 24.2488 5.63875 24.4688C6.12375 24.6575 6.85125 24.8813 8.1925 24.9425C9.6425 25.0088 10.0762 25.0225 13.7487 25.0225C17.4212 25.0225 17.855 25.0088 19.305 24.9425C20.6463 24.8813 21.3737 24.6575 21.8587 24.4688C22.5 24.2188 22.9588 23.9225 23.44 23.4413C23.8963 22.9975 24.2475 22.4563 24.4675 21.86C24.6562 21.375 24.88 20.6475 24.9412 19.3062C25.0075 17.8562 25.0213 17.4213 25.0213 13.75C25.0213 10.0787 25.0075 9.64375 24.9412 8.19375C24.88 6.8525 24.6562 6.125 24.4675 5.64C24.2175 4.99875 23.9213 4.54 23.44 4.05875C22.9965 3.60216 22.4561 3.25102 21.8587 3.03125C21.3737 2.8425 20.6463 2.61875 19.305 2.5575ZM11.9925 17.9887C12.9733 18.397 14.0655 18.4521 15.0824 18.1447C16.0993 17.8372 16.978 17.1861 17.5683 16.3028C18.1585 15.4195 18.4238 14.3586 18.3188 13.3014C18.2138 12.2442 17.745 11.2562 16.9925 10.5062C16.5128 10.0268 15.9328 9.65977 15.2942 9.43143C14.6556 9.2031 13.9743 9.1192 13.2994 9.18577C12.6245 9.25234 11.9727 9.46772 11.391 9.81641C10.8093 10.1651 10.3122 10.6384 9.93538 11.2023C9.55858 11.7662 9.31149 12.4066 9.2119 13.0775C9.1123 13.7483 9.16269 14.4329 9.35943 15.0819C9.55616 15.7309 9.89435 16.3283 10.3497 16.8309C10.8049 17.3335 11.366 17.729 11.9925 17.9887ZM8.7525 8.7525C9.40878 8.09622 10.1879 7.57563 11.0454 7.22045C11.9028 6.86528 12.8219 6.68247 13.75 6.68247C14.6781 6.68247 15.5972 6.86527 16.4546 7.22045C17.3121 7.57563 18.0912 8.09622 18.7475 8.7525C19.4038 9.40878 19.9244 10.1879 20.2795 11.0454C20.6347 11.9028 20.8175 12.8219 20.8175 13.75C20.8175 14.6781 20.6347 15.5972 20.2795 16.4546C19.9244 17.3121 19.4038 18.0912 18.7475 18.7475C17.4221 20.0729 15.6244 20.8175 13.75 20.8175C11.8756 20.8175 10.0779 20.0729 8.7525 18.7475C7.42708 17.4221 6.68247 15.6244 6.68247 13.75C6.68247 11.8756 7.42708 10.0779 8.7525 8.7525ZM22.385 7.735C22.5476 7.58159 22.6778 7.3971 22.7679 7.19247C22.8579 6.98783 22.906 6.76721 22.9093 6.54366C22.9125 6.32011 22.8709 6.09818 22.7869 5.89101C22.7028 5.68384 22.578 5.49564 22.42 5.33755C22.2619 5.17946 22.0737 5.0547 21.8665 4.97065C21.6593 4.8866 21.4374 4.84497 21.2138 4.84823C20.9903 4.85149 20.7697 4.89957 20.565 4.98962C20.3604 5.07967 20.1759 5.20987 20.0225 5.3725C19.7241 5.68879 19.5608 6.1089 19.5671 6.54366C19.5735 6.97842 19.749 7.3936 20.0564 7.70105C20.3639 8.00851 20.7791 8.18404 21.2138 8.19037C21.6486 8.19671 22.0687 8.03336 22.385 7.735Z" fill="black"/>
</svg>
